<?xml version="1.0" encoding="UTF-8" standalone="no"?>
<svg
   xmlns:dc="http://purl.org/dc/elements/1.1/"
   xmlns:cc="http://creativecommons.org/ns#"
   xmlns:rdf="http://www.w3.org/1999/02/22-rdf-syntax-ns#"
   xmlns:svg="http://www.w3.org/2000/svg"
   xmlns="http://www.w3.org/2000/svg"
   xmlns:sodipodi="http://sodipodi.sourceforge.net/DTD/sodipodi-0.dtd"
   xmlns:inkscape="http://www.inkscape.org/namespaces/inkscape"
   version="1.1"
   width="575px"
   height="575px"
   viewBox="-2 -2 579 579"
   id="svg3041"
   inkscape:version="0.48.5 r10040"
   sodipodi:docname="Gebotszeichen Geschlossenes System.svg">
  <sodipodi:namedview
     pagecolor="#ffffff"
     bordercolor="#666666"
     borderopacity="1"
     objecttolerance="10"
     gridtolerance="10"
     guidetolerance="10"
     inkscape:pageopacity="0"
     inkscape:pageshadow="2"
     inkscape:window-width="1366"
     inkscape:window-height="711"
     id="namedview3055"
     showgrid="false"
     inkscape:zoom="0.46608696"
     inkscape:cx="108.03059"
     inkscape:cy="340.34444"
     inkscape:window-x="-2"
     inkscape:window-y="-3"
     inkscape:window-maximized="1"
     inkscape:current-layer="g3045"
     showguides="true"
     inkscape:guide-bbox="true"
     inkscape:snap-bbox="false"
     inkscape:object-nodes="false"
     inkscape:snap-smooth-nodes="false"
     inkscape:object-paths="false"
     inkscape:snap-object-midpoints="true" />
  <metadata
     id="metadata3057">
    <rdf:RDF>
      <cc:Work
         rdf:about="">
        <dc:format>image/svg+xml</dc:format>
        <dc:type
           rdf:resource="http://purl.org/dc/dcmitype/StillImage" />
        <dc:title />
      </cc:Work>
    </rdf:RDF>
  </metadata>
  <defs
     id="defs3043">
    <marker
       inkscape:stockid="Arrow1Send"
       orient="auto"
       refY="0.0"
       refX="0.0"
       id="Arrow1Send"
       style="overflow:visible;">
      <path
         id="path3863"
         d="M 0.0,0.0 L 5.0,-5.0 L -12.5,0.0 L 5.0,5.0 L 0.0,0.0 z "
         style="fill-rule:evenodd;stroke:#000000;stroke-width:1.0pt;"
         transform="scale(0.2) rotate(180) translate(6,0)" />
    </marker>
    <marker
       inkscape:stockid="Arrow2Mend"
       orient="auto"
       refY="0.0"
       refX="0.0"
       id="Arrow2Mend"
       style="overflow:visible;">
      <path
         id="path3875"
         style="fill-rule:evenodd;stroke-width:0.62500000;stroke-linejoin:round;"
         d="M 8.7185878,4.0337352 L -2.2072895,0.016013256 L 8.7185884,-4.0017078 C 6.9730900,-1.6296469 6.9831476,1.6157441 8.7185878,4.0337352 z "
         transform="scale(0.6) rotate(180) translate(0,0)" />
    </marker>
    <marker
       inkscape:stockid="Arrow1Lend"
       orient="auto"
       refY="0.0"
       refX="0.0"
       id="Arrow1Lend"
       style="overflow:visible;">
      <path
         id="path3851"
         d="M 0.0,0.0 L 5.0,-5.0 L -12.5,0.0 L 5.0,5.0 L 0.0,0.0 z "
         style="fill-rule:evenodd;stroke:#000000;stroke-width:1.0pt;"
         transform="scale(0.8) rotate(180) translate(12.5,0)" />
    </marker>
    <marker
       inkscape:stockid="Arrow1Sendk"
       orient="auto"
       refY="0.0"
       refX="0.0"
       id="Arrow1Sendk"
       style="overflow:visible;">
      <path
         id="path4673"
         d="M 0.0,0.0 L 5.0,-5.0 L -12.5,0.0 L 5.0,5.0 L 0.0,0.0 z "
         style="stroke:#ffffff;stroke-width:1.0pt;fill:#ffffff;fill-rule:evenodd"
         transform="scale(0.2) rotate(180) translate(6,0)" />
    </marker>
    <marker
       inkscape:stockid="Arrow1Sendk"
       orient="auto"
       refY="0"
       refX="0"
       id="Arrow1Sendk-9"
       style="overflow:visible">
      <path
         id="path4673-3"
         d="M 0,0 5,-5 -12.5,0 5,5 0,0 z"
         style="fill:#ffffff;fill-rule:evenodd;stroke:#ffffff;stroke-width:1pt"
         transform="matrix(-0.2,0,0,-0.2,-1.2,0)"
         inkscape:connector-curvature="0" />
    </marker>
    <marker
       inkscape:stockid="Arrow1Sendk2"
       orient="auto"
       refY="0.0"
       refX="0.0"
       id="Arrow1Sendk2"
       style="overflow:visible;">
      <path
         id="path4749"
         d="M 0.0,0.0 L 5.0,-5.0 L -12.5,0.0 L 5.0,5.0 L 0.0,0.0 z "
         style="fill-rule:evenodd;stroke:#004488;stroke-width:1.0pt;fill:#004488"
         transform="scale(0.2) rotate(180) translate(6,0)" />
    </marker>
  </defs>
  <g
     transform="translate(-107.73,-241.82)"
     id="g3045">
    <circle
       cx="396"
       cy="529"
       r="285"
       style="fill:#ffffff; stroke:#000000; stroke-width:1;"
       id="circle3047"
       d="M 681,529 C 681,686.40115 553.40115,814 396,814 238.59885,814 111,686.40115 111,529 111,371.59885 238.59885,244 396,244 c 157.40115,0 285,127.59885 285,285 z" />
    <circle
       cx="396"
       cy="529"
       r="281"
       style="fill:#004488; stroke:none;"
       id="circle3049"
       d="M 677,529 C 677,684.19201 551.19201,810 396,810 240.80799,810 115,684.19201 115,529 115,373.80799 240.80799,248 396,248 c 155.19201,0 281,125.80799 281,281 z" />
    <path
       id="path4353-1"
       style="color:#000000;fill:none;stroke:#ffffff;stroke-width:25.17391304;stroke-linecap:round;stroke-linejoin:miter;stroke-miterlimit:4;stroke-opacity:1;stroke-dashoffset:0;marker:none;visibility:visible;display:inline;overflow:visible;enable-background:accumulate;stroke-dasharray:none"
       d="m 509.51276,595.65937 -47.81556,0.25674 0,47.56061 c 0,26.40881 21.40776,47.81737 47.81556,47.81737 26.4078,0 47.81555,-21.40857 47.81555,-47.81737 0,-26.40878 -21.40814,-47.95914 -47.81556,-47.81735 z m -179.20995,48.0741 -0.25674,-47.81736 -47.55882,0 c -26.4078,0 -47.81556,21.40856 -47.81556,47.81736 0,26.40881 21.40776,47.81736 47.81556,47.81736 26.4078,0 47.95734,-21.40894 47.81556,-47.81736 z m 0,-229.46695 -0.25673,47.81737 -47.55883,0 c -26.4078,0 -47.81556,-21.40857 -47.81556,-47.81737 0,-26.40879 21.40776,-47.81736 47.81556,-47.81736 26.4078,0 47.95735,21.40895 47.81556,47.81736 z m 131.13766,0 0.25673,47.81737 47.55883,0 c 26.40779,0 47.81556,-21.40857 47.81556,-47.81737 0,-26.40879 -21.40777,-47.81736 -47.81556,-47.81736 -26.40781,0 -47.95734,21.40895 -47.81556,47.81736 z m -131.52592,47.81737 131.78264,0 0,133.83222 -131.78264,0 z"
       inkscape:connector-curvature="0" />
  </g>
</svg>
